Coordinates
version=1
nRows=17
nColumns=24
inDegrees=yes

Units are S.I. units (second, meters, Newtons, ...)
Angles are in degrees.

endheader
time	pelvis_tilt	pelvis_list	pelvis_rotation	pelvis_tx	pelvis_ty	pelvis_tz	hip_flexion_r	hip_adduction_r	hip_rotation_r	knee_angle_r	ankle_angle_r	subtalar_angle_r	mtp_angle_r	hip_flexion_l	hip_adduction_l	hip_rotation_l	knee_angle_l	ankle_angle_l	subtalar_angle_l	mtp_angle_l	lumbar_extension	lumbar_bending	lumbar_rotation
      0.77100000	     -1.27364250	     -4.39238555	      8.71353831	     -0.43905929	      0.90489169	      0.31015734	     13.76761950	      9.16899413	     -8.63291985	    -21.91109699	     12.39296361	      0.17510520	      5.49622726	     17.16070276	     -7.71105051	     -0.03058707	    -72.85672019	     -0.88872036	     -9.01323776	      1.24863196	     -4.50131681	      5.30221193	     -0.96145892
      0.77516667	     -1.30311930	     -4.22850221	      8.56855722	     -0.43372980	      0.90606763	      0.31055680	     13.13066640	      9.12421327	     -8.41524182	    -21.38246199	     12.45441529	      0.27374237	      5.48997221	     17.79823116	     -7.40529299	     -0.21180381	    -72.48209652	     -0.40345374	     -8.99140573	      1.14618683	     -4.51917231	      5.09318953	     -0.59544328
      0.77933333	     -1.35808637	     -4.06077618	      8.40931606	     -0.42844641	      0.90717932	      0.31092776	     12.53305703	      9.05897153	     -8.20949694	    -20.87205984	     12.46236977	      0.40882500	      5.48707674	     18.44523297	     -7.08212700	     -0.39729713	    -72.03990120	      0.08261993	     -9.03434964	      1.09892813	     -4.52187093	      4.90110495	     -0.42153292
      0.78350000	     -1.36340182	     -3.89510565	      8.24512891	     -0.42311501	      0.90834609	      0.31134490	     11.85606279	      9.00905439	     -7.99710785	    -20.31012820	     12.51115275	      0.53395884	      5.48447805	     19.01294725	     -6.79314246	     -0.61092023	    -71.52111676	      0.52020695	     -8.98792895	      1.02096421	     -4.56617741	      4.69358809	     -0.06889084
      0.78766667	     -1.38004454	     -3.72794619	      8.06346600	     -0.41781537	      0.90946200	      0.31175990	     11.19816184	      8.94859853	     -7.78914904	    -19.75622702	     12.52173173	      0.67270983	      5.48373596	     19.57341222	     -6.50089996	     -0.83664890	    -70.93660085	      0.95307570	     -8.96853774	      0.95385495	     -4.60678072	      4.49435269	      0.20665523
      0.79183333	     -1.38199672	     -3.55974027	      7.87515049	     -0.41251080	      0.91057070	      0.31218650	     10.51647997	      8.88537943	     -7.58729911	    -19.18449170	     12.52688904	      0.82889960	      5.48501785	     20.09620242	     -6.21700959	     -1.07337250	    -70.28208131	      1.36666607	     -8.93149371	      0.89399625	     -4.66274690	      4.29651490	      0.48010796
      0.79600000	     -1.41555748	     -3.39528265	      7.67122818	     -0.40722354	      0.91158270	      0.31262194	      9.87962096	      8.81286755	     -7.41168987	    -18.62854050	     12.50087698	      1.01039685	      5.48594355	     20.63864532	     -5.94340495	     -1.33563334	    -69.57261197	      1.76591398	     -8.92634953	      0.87286607	     -4.66086956	      4.08403634	      0.62921073
      0.80016667	     -1.35102944	     -3.23215949	      7.47198985	     -0.40192277	      0.91271867	      0.31305595	      9.10560143	      8.75928768	     -7.20431132	    -18.00802873	     12.51624020	      1.17574791	      5.49192203	     21.04678899	     -5.68791145	     -1.58744965	    -68.78436955	      2.13377160	     -8.83342679	      0.82265228	     -4.81615913	      3.91368680	      1.02077640
      0.80433333	     -1.32238488	     -3.07353444	      7.25344243	     -0.39664403	      0.91375136	      0.31350624	      8.37959551	      8.69780846	     -7.00869701	    -17.39831405	     12.49190896	      1.35072417	      5.49924477	     21.47824939	     -5.44297524	     -1.86190540	    -67.94075322	      2.49546171	     -8.76639500	      0.77699369	     -4.90729498	      3.73179427	      1.30980188
      0.80850000	     -1.29746704	     -2.90538694	      7.01435174	     -0.39138557	      0.91473250	      0.31396698	      7.66880342	      8.61710586	     -6.82415284	    -16.81176206	     12.44094354	      1.55248706	      5.50512030	     21.88906092	     -5.19366833	     -2.16040010	    -67.03191961	      2.84268835	     -8.70787062	      0.75069300	     -4.99708633	      3.54904662	      1.52618582
      0.81266667	     -1.22530121	     -2.76656324	      6.80129010	     -0.38610125	      0.91571782	      0.31441480	      6.87752169	      8.57414787	     -6.65614135	    -16.15429883	     12.43122811	      1.74227143	      5.51695692	     22.24492309	     -4.98846279	     -2.43726256	    -66.08050121	      3.15662219	     -8.62642241	      0.71479920	     -5.13776477	      3.37954356	      1.84680381
      0.81683333	     -1.18015163	     -2.60852883	      6.54728376	     -0.38085725	      0.91662517	      0.31488598	      6.13907243	      8.49602240	     -6.48497176	    -15.54590432	     12.36011548	      1.95835109	      5.52590043	     22.59823280	     -4.76757505	     -2.75349349	    -65.05808232	      3.46308758	     -8.55755150	      0.69235124	     -5.24928427	      3.21079636	      2.06847372
      0.82100000	     -1.09568789	     -2.48259527	      6.32596458	     -0.37560035	      0.91750630	      0.31533549	      5.33086638	      8.45670304	     -6.33625343	    -14.86954288	     12.34419952	      2.16446607	      5.54209186	     22.91151886	     -4.58656831	     -3.03821776	    -64.00472984	      3.74148019	     -8.47313642	      0.66247198	     -5.40195293	      3.05524095	      2.37734026
      0.82516667	     -1.03309116	     -2.34211542	      6.06698664	     -0.37037045	      0.91831387	      0.31579800	      4.56923376	      8.38820219	     -6.18408660	    -14.24307266	     12.26698214	      2.39579748	      5.55527737	     23.21547657	     -4.39530581	     -3.35819671	    -62.87889624	      4.00708415	     -8.39432208	      0.64150494	     -5.53045574	      2.90424077	      2.60530475
      0.82933333	     -0.94148367	     -2.21478907	      5.82005428	     -0.36513955	      0.91909030	      0.31625961	      3.75882196	      8.33297809	     -6.04847745	    -13.57365788	     12.20723956	      2.63577775	      5.57191831	     23.48026728	     -4.22493343	     -3.66665247	    -61.71464195	      4.25146520	     -8.31200138	      0.62050020	     -5.69686420	      2.75401770	      2.86930807
      0.83350000	     -0.86381113	     -2.09500164	      5.56548757	     -0.35993130	      0.91977769	      0.31671150	      2.97300805	      8.27707857	     -5.92110389	    -12.91805753	     12.14118146	      2.88208941	      5.58914839	     23.74449083	     -4.06230292	     -3.97833464	    -60.49893286	      4.47713615	     -8.22608351	      0.60269002	     -5.84265447	      2.61941732	      3.11100169
      0.83766667	     -0.77590286	     -1.98326548	      5.31351266	     -0.35472703	      0.92040525	      0.31716054	      2.17319504	      8.22409987	     -5.80888671	    -12.25430173	     12.07877816	      3.14071117	      5.60839904	     23.98492128	     -3.91217860	     -4.28394464	    -59.23977557	      4.68241115	     -8.13432273	      0.58635598	     -5.99998900	      2.49037415	      3.35787501
